<svg width="220" height="220" viewBox="0 0 220 220" fill="none" xmlns="http://www.w3.org/2000/svg">
<path d="M215.773 63.4547H188.275V4.22678C188.275 1.89441 186.38 0 184.041 0H35.966C34.8438 0 33.7651 0.437171 32.9708 1.23865C32.1764 2.02588 31.7321 3.10376 31.7321 4.22678L31.7393 63.4555H4.23391C1.89441 63.4555 0 65.3507 0 67.6902V215.765C0 218.105 1.8952 220 4.23391 220H215.773C218.112 220 220.007 218.105 220.007 215.765V67.6894C220.007 65.3499 218.112 63.4547 215.773 63.4547ZM76.0123 137.988L8.46068 205.547V77.1932L76.0123 137.988ZM82.3236 143.665L107.161 166.024C107.977 166.746 108.983 167.11 110.003 167.11C111.009 167.11 112.03 166.746 112.831 166.024L137.683 143.658L205.547 211.53H14.452L82.3236 143.665ZM143.98 137.996L211.539 77.1932V205.554L143.98 137.996ZM204.754 71.9162L188.275 86.7396V71.9162H204.754ZM179.807 8.45356V94.1304C179.807 94.2032 179.844 94.2618 179.844 94.3268L110.003 157.185L40.1564 94.3268C40.1635 94.261 40.1928 94.2032 40.1928 94.1304V8.45356H179.807ZM31.7385 86.7476L15.2535 71.9162H31.7385V86.7476Z" fill="#FFA500"/>
<path d="M162.883 29.6099H57.1135C54.7819 29.6099 52.8867 27.7147 52.8867 25.3752C52.8867 23.0428 54.7819 21.1484 57.1135 21.1484H162.883C165.222 21.1484 167.117 23.0436 167.117 25.3752C167.117 27.7147 165.222 29.6099 162.883 29.6099Z" fill="#FFA500"/>
<path d="M162.883 50.7663H57.1135C54.7819 50.7663 52.8867 48.8711 52.8867 46.5316C52.8867 44.1921 54.7819 42.2969 57.1135 42.2969H162.883C165.222 42.2969 167.117 44.1921 167.117 46.5316C167.117 48.8711 165.222 50.7663 162.883 50.7663Z" fill="#FFA500"/>
<path d="M162.883 71.9146H57.1135C54.7819 71.9146 52.8867 70.0194 52.8867 67.6878C52.8867 65.3483 54.7819 63.4531 57.1135 63.4531H162.883C165.222 63.4531 167.117 65.3483 167.117 67.6878C167.117 70.0202 165.222 71.9146 162.883 71.9146Z" fill="#FFA500"/>
<path d="M162.883 93.0728H57.1135C54.7819 93.0728 52.8867 91.1776 52.8867 88.8381C52.8867 86.5057 54.7819 84.6113 57.1135 84.6113H162.883C165.222 84.6113 167.117 86.5057 167.117 88.8381C167.117 91.1784 165.222 93.0728 162.883 93.0728Z" fill="#FFA500"/>
</svg>
